/* XPM */
static char *_5ffb958074b4ab8e6e9d269033f609eLm3h88okeEGmNgBu[] = {
/* columns rows colors chars-per-pixel */
"32 32 2 1 ",
"  c None",
". c gray64",
/* pixels */
"                                ",
"                                ",
"             ........           ",
"           ...       ..         ",
"          ..                    ",
"         .                      ",
"        .                       ",
"       ..    .....              ",
"       . .....    ....          ",
"       ...           ..         ",
"       ..             .         ",
"      . ..           ..         ",
"     .    ...........           ",
"     .                          ",
"    ..       ....               ",
"    .    ....    ...            ",
"    .. ...         ..           ",
"     ...             .          ",
"     ..             ..          ",
"    ..            ...           ",
"    . ..      ....              ",
"    .   .......                 ",
"   .                            ",
"    .                           ",
"    .       ........            ",
"    .    ....     ..            ",
"     .. ..       ..             ",
"      .....   ...               ",
"       .  ....      ...         ",
"       .         ....           ",
"       ..     ...               ",
"        ......                  "
};
