/* XPM */
static char *_6982db83a2e400de864df58f654d1caprurTMioSFIf7Ax8[] = {
/* columns rows colors chars-per-pixel */
"32 32 2 1 ",
"  c None",
". c gray59",
/* pixels */
"                                ",
"                                ",
"                                ",
"                                ",
"                                ",
"                                ",
"                                ",
"                                ",
"              ...........       ",
"        ......           .....  ",
"      ..                     .  ",
"     ..                         ",
"    ..    ...............       ",
"    .  ...               .      ",
"   . ..                  .      ",
"   ..                   ..      ",
" ...         ...........        ",
" .  ...............     ..      ",
".    ....               ..      ",
".  ..                  ..       ",
" ..              ...  ..        ",
" .       ........  ...          ",
". .......       ...  ...        ",
".. ...       ........  .        ",
" ...............  ......        ",
"  .      .........              ",
"  .   ......                    ",
"  ....                          ",
"                                ",
"                                ",
"                                ",
"                                "
};
